# xmcd
#
# Track frame offsets: 
#        187
#        13400
#        27310
#        40070
#        52587
#        65447
#        80842
#        92702
#        104985
#        114170
#        128725
#        142610
#        154427
#        164050
#        173890
#        185017
#        197160
#        210075
#        222865
#        236047
#        246595
#
# Disc length: 3431 seconds
#
# Revision: 0
# Processed by: cddbd v1.5.2PL0 Copyright (c) Steve Scherf et al.
# Submitted via: ExactAudioCopy v1.0b3
#
DISCID=2f0d6515
DTITLE=Little Walter - Confessin' The Blues
DYEAR=1996
DGENRE=Blues
TTITLE0=It Ain't Right
TTITLE1=Rocker
TTITLE2=I Got To Find My Baby
TTITLE3=Lights Out
TTITLE4=One More Chance With You
TTITLE5=Crazy Legs
TTITLE6=Temperature
TTITLE7=I Got To Go
TTITLE8=Crazy Mixed-Up World
TTITLE9=Quarter To Twelve
TTITLE10=Confessin' The Blues
TTITLE11=The Toddle
TTITLE12=Up The Line
TTITLE13=Rock Bottom
TTITLE14=Mean Old Frisco
TTITLE15=Too Late
TTITLE16=Fast Large One
TTITLE17=Boom, Boom Out Goes The Light
TTITLE18=Just A Feeling
TTITLE19=I Don't Play
TTITLE20=Just Your Fool
EXTD=
EXTT0=
EXTT1=
EXTT2=
EXTT3=
EXTT4=
EXTT5=
EXTT6=
EXTT7=
EXTT8=
EXTT9=
EXTT10=
EXTT11=
EXTT12=
EXTT13=
EXTT14=
EXTT15=
EXTT16=
EXTT17=
EXTT18=
EXTT19=
EXTT20=
PLAYORDER=
